<?xml version="1.0" encoding="UTF-8"?>
<svg id="Layer_1" xmlns="http://www.w3.org/2000/svg" version="1.1" xmlns:xlink="http://www.w3.org/1999/xlink" viewBox="0 0 726.1 726.1">
  <!-- Generator: Adobe Illustrator 29.4.0, SVG Export Plug-In . SVG Version: 2.1.0 Build 152)  -->
  <defs>
    <style>
      .st0 {
        fill: url(#linear-gradient2);
      }

      .st1 {
        fill: #93f6ce;
      }

      .st2 {
        fill: url(#linear-gradient1);
      }

      .st3 {
        fill: #27b4e5;
      }

      .st4 {
        fill: #9af8cf;
      }

      .st5 {
        fill: url(#linear-gradient);
      }
    </style>
    <linearGradient id="linear-gradient" x1="267" y1="156.7" x2="444.3" y2="542.8" gradientUnits="userSpaceOnUse">
      <stop offset="0" stop-color="#98f8cf"/>
      <stop offset="1" stop-color="#26b3e1"/>
    </linearGradient>
    <linearGradient id="linear-gradient1" x1="114.7" y1="287.8" x2="240.2" y2="287.8" gradientUnits="userSpaceOnUse">
      <stop offset="0" stop-color="#1c36ca"/>
      <stop offset="1" stop-color="#2b6bce"/>
    </linearGradient>
    <linearGradient id="linear-gradient2" x1="0" y1="363" x2="726.1" y2="363" xlink:href="#linear-gradient"/>
  </defs>
  <g>
    <path class="st5" d="M460.9,140.4c-59.1-8.9-140.6,31.5-152.4,93.9-15.2,80.7,69.7,83.9,118.3,112.5,69.3,40.8,86.2,138.9,39.9,203.5-46.6,65-135.8,67.8-203.6,36.6v-2c1.5.7,2.7,1,4.4,1.1,20.1.6,38.1,0,57.5-5.6,42.2-12.3,86.5-47.7,93.6-93.2,13.2-85-65.1-82.6-118.3-112.9-113.5-64.6-80.5-231.3,48.4-252.6,30.9-5.1,81.2-.2,108.8,15.5,1.3.7,2.9,1.7,3.3,3.2Z"/>
    <path class="st2" d="M240.2,155.4c-45.3,41-67.2,100.6-50.4,160.8,5.6,20.3,15.9,36.4,26.3,54.3l-46.3,46.6c-12,10.1-28.2-7.4-34.8-17-7.2-10.4-13.2-25.6-16.1-37.9-20.5-87,38.3-179.9,121.4-206.8Z"/>
    <path class="st3" d="M110.3,409.2c5.7,6.3,9.2,14.9,14.6,21.9,43.4,57,120.9,61.1,181.9,31.2l1.3.3c7.7,12.6,16,25,23.2,37.9,8.2,14.8,18,27.4,2.8,42.2-20.7,20.1-62.8,19.7-88.9,14-70.9-15.5-122.9-76.9-134.8-147.4Z"/>
    <path class="st1" d="M490.9,566c6.7-7.8,14.6-14.4,21-22.5,37.9-48,42.6-116.6,13.2-170-1.8-3.2-11.5-16.8-11.1-18.6l47.3-46.7c12-7.9,28.3,11.8,33.9,21.1,24.7,40.9,19.2,99.7,0,141.7-19.5,42.7-59.7,80.2-104.4,94.9Z"/>
    <path class="st4" d="M615.8,314.3c-3.8-2.4-4.9-7.4-7.4-11.1-35.6-54-96-68.5-156.7-51.5-8.1,2.3-19.4,8-26.7,9.3-1.1.2-1.7.6-3,0s-15.2-23.1-17.4-26.6c-4-6.4-18.5-28.3-18.6-34.4,0-12.7,14.9-23.2,25.3-27.7,40.4-17.2,90.9-3.3,125.9,20.3s68.7,72.7,78.6,121.7Z"/>
  </g>
  <path class="st0" d="M363,726.1c-49,0-96.6-9.6-141.3-28.5-43.2-18.3-82.1-44.5-115.4-77.8-33.3-33.3-59.5-72.2-77.8-115.4C9.6,459.6,0,412.1,0,363s9.6-96.6,28.5-141.3c18.3-43.2,44.5-82.1,77.8-115.4,33.3-33.3,72.2-59.5,115.4-77.8C266.5,9.6,314,0,363,0s96.6,9.6,141.3,28.5c43.2,18.3,82.1,44.5,115.4,77.8,33.3,33.3,59.5,72.2,77.8,115.4,18.9,44.8,28.5,92.3,28.5,141.3s-9.6,96.6-28.5,141.3c-18.3,43.2-44.5,82.1-77.8,115.4-33.3,33.3-72.2,59.5-115.4,77.8-44.8,18.9-92.3,28.5-141.3,28.5ZM363,10C168.4,10,10,168.4,10,363s158.4,353,353,353,353-158.4,353-353S557.7,10,363,10Z"/>
</svg>